<mxfile host="65bd71144e">
    <diagram id="edpjgliIH8Q6PDpN4dhM" name="Page-1">
        <mxGraphModel dx="1781" dy="1001" grid="1" gridSize="10" guides="1" tooltips="1" connect="1" arrows="1" fold="1" page="1" pageScale="1" pageWidth="850" pageHeight="1100" math="0" shadow="0">
            <root>
                <mxCell id="0"/>
                <mxCell id="1" parent="0"/>
                <mxCell id="85" value="" style="rounded=0;whiteSpace=wrap;html=1;fillColor=#FFFFFF;strokeColor=#FFFFFF;fontColor=#000000;" vertex="1" parent="1">
                    <mxGeometry x="40" y="40" width="1200" height="1200" as="geometry"/>
                </mxCell>
                <mxCell id="23" value="User" style="swimlane;whiteSpace=wrap;html=1;strokeWidth=2;fillColor=#FFFFFF;strokeColor=#000000;fontColor=#000000;" parent="1" vertex="1">
                    <mxGeometry x="40" y="80" width="280" height="1160" as="geometry"/>
                </mxCell>
                <mxCell id="28" style="edgeStyle=none;html=1;entryX=0.5;entryY=0;entryDx=0;entryDy=0;strokeWidth=2;strokeColor=#000000;" parent="23" source="26" target="27" edge="1">
                    <mxGeometry relative="1" as="geometry"/>
                </mxCell>
                <mxCell id="26" value="" style="ellipse;whiteSpace=wrap;html=1;aspect=fixed;strokeWidth=2;fillColor=#FFFFFF;strokeColor=#000000;" parent="23" vertex="1">
                    <mxGeometry x="110" y="50" width="60" height="60" as="geometry"/>
                </mxCell>
                <mxCell id="49" style="edgeStyle=none;html=1;entryX=0.5;entryY=0;entryDx=0;entryDy=0;strokeWidth=2;strokeColor=#000000;" parent="23" source="27" target="47" edge="1">
                    <mxGeometry relative="1" as="geometry"/>
                </mxCell>
                <mxCell id="27" value="navigates to a recipe" style="rounded=1;whiteSpace=wrap;html=1;strokeWidth=2;strokeColor=#000000;fillColor=#FFFFFF;fontColor=#000000;" parent="23" vertex="1">
                    <mxGeometry x="80" y="170" width="120" height="60" as="geometry"/>
                </mxCell>
                <mxCell id="45" value="presses publish button" style="rounded=1;whiteSpace=wrap;html=1;strokeWidth=2;strokeColor=#000000;fillColor=#FFFFFF;fontColor=#000000;" parent="23" vertex="1">
                    <mxGeometry x="80" y="590" width="120" height="60" as="geometry"/>
                </mxCell>
                <mxCell id="48" style="edgeStyle=none;html=1;entryX=0;entryY=0.5;entryDx=0;entryDy=0;strokeWidth=2;strokeColor=#000000;" parent="23" source="47" target="26" edge="1">
                    <mxGeometry relative="1" as="geometry">
                        <Array as="points">
                            <mxPoint x="40" y="300"/>
                            <mxPoint x="40" y="80"/>
                        </Array>
                    </mxGeometry>
                </mxCell>
                <mxCell id="47" value="presses back button" style="rounded=1;whiteSpace=wrap;html=1;strokeWidth=2;strokeColor=#000000;fillColor=#FFFFFF;fontColor=#000000;" parent="23" vertex="1">
                    <mxGeometry x="80" y="270" width="120" height="60" as="geometry"/>
                </mxCell>
                <mxCell id="24" value="App" style="swimlane;whiteSpace=wrap;html=1;strokeWidth=2;strokeColor=#000000;fontColor=#000000;fillColor=#FFFFFF;" parent="1" vertex="1">
                    <mxGeometry x="320" y="80" width="280" height="1160" as="geometry"/>
                </mxCell>
                <mxCell id="84" style="edgeStyle=none;html=1;strokeWidth=2;fontSize=24;strokeColor=#000000;" parent="24" source="29" target="83" edge="1">
                    <mxGeometry relative="1" as="geometry"/>
                </mxCell>
                <mxCell id="29" value="start loading recipe from DB" style="rounded=1;whiteSpace=wrap;html=1;strokeWidth=2;strokeColor=#000000;fillColor=#FFFFFF;fontColor=#000000;" parent="24" vertex="1">
                    <mxGeometry x="80" y="170" width="120" height="60" as="geometry"/>
                </mxCell>
                <mxCell id="39" style="edgeStyle=none;html=1;entryX=0.5;entryY=0;entryDx=0;entryDy=0;strokeWidth=2;strokeColor=#000000;" parent="24" source="33" target="38" edge="1">
                    <mxGeometry relative="1" as="geometry"/>
                </mxCell>
                <mxCell id="33" value="recieved recipe data from DB" style="rounded=1;whiteSpace=wrap;html=1;strokeWidth=2;strokeColor=#000000;fillColor=#FFFFFF;fontColor=#000000;" parent="24" vertex="1">
                    <mxGeometry x="80" y="430" width="120" height="60" as="geometry"/>
                </mxCell>
                <mxCell id="38" value="display recipe preview" style="rounded=1;whiteSpace=wrap;html=1;strokeWidth=2;strokeColor=#000000;fillColor=#FFFFFF;fontColor=#000000;" parent="24" vertex="1">
                    <mxGeometry x="80" y="510" width="120" height="60" as="geometry"/>
                </mxCell>
                <mxCell id="40" value="displays recipe not found&amp;nbsp;" style="rounded=1;whiteSpace=wrap;html=1;strokeWidth=2;strokeColor=#000000;fillColor=#FFFFFF;fontColor=#000000;" parent="24" vertex="1">
                    <mxGeometry x="80" y="350" width="120" height="60" as="geometry"/>
                </mxCell>
                <mxCell id="59" style="edgeStyle=none;html=1;strokeWidth=2;strokeColor=#000000;" parent="24" source="56" target="58" edge="1">
                    <mxGeometry relative="1" as="geometry"/>
                </mxCell>
                <mxCell id="56" value="start uploading recipe to remote DB" style="rounded=1;whiteSpace=wrap;html=1;strokeWidth=2;strokeColor=#000000;fillColor=#FFFFFF;fontColor=#000000;" parent="24" vertex="1">
                    <mxGeometry x="80" y="590" width="120" height="60" as="geometry"/>
                </mxCell>
                <mxCell id="58" value="display upload started page" style="rounded=1;whiteSpace=wrap;html=1;strokeWidth=2;strokeColor=#000000;fillColor=#FFFFFF;fontColor=#000000;" parent="24" vertex="1">
                    <mxGeometry x="80" y="670" width="120" height="60" as="geometry"/>
                </mxCell>
                <mxCell id="81" style="edgeStyle=none;html=1;entryX=0.5;entryY=0;entryDx=0;entryDy=0;strokeWidth=2;strokeColor=#000000;" parent="24" source="74" target="79" edge="1">
                    <mxGeometry relative="1" as="geometry"/>
                </mxCell>
                <mxCell id="74" value="display recipe changed/uploaded successfull" style="rounded=1;whiteSpace=wrap;html=1;strokeWidth=2;strokeColor=#000000;fillColor=#FFFFFF;fontColor=#000000;" parent="24" vertex="1">
                    <mxGeometry x="80" y="950" width="120" height="60" as="geometry"/>
                </mxCell>
                <mxCell id="79" value="" style="ellipse;whiteSpace=wrap;html=1;aspect=fixed;strokeWidth=2;strokeColor=#000000;fillColor=#FFFFFF;" parent="24" vertex="1">
                    <mxGeometry x="110" y="1070" width="60" height="60" as="geometry"/>
                </mxCell>
                <mxCell id="80" value="" style="ellipse;whiteSpace=wrap;html=1;aspect=fixed;strokeWidth=2;strokeColor=#000000;fillColor=#FFFFFF;" parent="24" vertex="1">
                    <mxGeometry x="115" y="1075" width="50" height="50" as="geometry"/>
                </mxCell>
                <mxCell id="83" value="display started loading recipe" style="rounded=1;whiteSpace=wrap;html=1;strokeWidth=2;strokeColor=#000000;fillColor=#FFFFFF;fontColor=#000000;" parent="24" vertex="1">
                    <mxGeometry x="80" y="250" width="120" height="60" as="geometry"/>
                </mxCell>
                <mxCell id="25" value="local DB" style="swimlane;whiteSpace=wrap;html=1;strokeWidth=2;strokeColor=#000000;fontColor=#000000;fillColor=#FFFFFF;" parent="1" vertex="1">
                    <mxGeometry x="600" y="80" width="280" height="1160" as="geometry"/>
                </mxCell>
                <mxCell id="36" style="edgeStyle=none;html=1;entryX=0.5;entryY=0;entryDx=0;entryDy=0;strokeWidth=2;strokeColor=#000000;" parent="25" source="31" target="35" edge="1">
                    <mxGeometry relative="1" as="geometry"/>
                </mxCell>
                <mxCell id="31" value="recieves request to load recipe" style="rounded=1;whiteSpace=wrap;html=1;strokeWidth=2;strokeColor=#000000;fillColor=#FFFFFF;fontColor=#000000;" parent="25" vertex="1">
                    <mxGeometry x="80" y="250" width="120" height="60" as="geometry"/>
                </mxCell>
                <mxCell id="35" value="" style="rhombus;whiteSpace=wrap;html=1;strokeWidth=2;strokeColor=#000000;fillColor=#FFFFFF;fontColor=#000000;" parent="25" vertex="1">
                    <mxGeometry x="110" y="350" width="60" height="60" as="geometry"/>
                </mxCell>
                <mxCell id="43" value="found no mathicng recipe in DB" style="text;html=1;strokeColor=none;fillColor=none;align=center;verticalAlign=middle;whiteSpace=wrap;rounded=0;strokeWidth=2;fontColor=#000000;" parent="25" vertex="1">
                    <mxGeometry x="10" y="320" width="90" height="60" as="geometry"/>
                </mxCell>
                <mxCell id="44" value="found matching recipe in DB" style="text;html=1;strokeColor=none;fillColor=none;align=center;verticalAlign=middle;whiteSpace=wrap;rounded=0;strokeWidth=2;fontColor=#000000;" parent="25" vertex="1">
                    <mxGeometry x="10" y="400" width="90" height="60" as="geometry"/>
                </mxCell>
                <mxCell id="30" style="edgeStyle=none;html=1;strokeWidth=2;strokeColor=#000000;" parent="1" source="27" target="29" edge="1">
                    <mxGeometry relative="1" as="geometry"/>
                </mxCell>
                <mxCell id="32" style="edgeStyle=none;html=1;strokeWidth=2;strokeColor=#000000;" parent="1" source="29" target="31" edge="1">
                    <mxGeometry relative="1" as="geometry">
                        <Array as="points">
                            <mxPoint x="740" y="280"/>
                        </Array>
                    </mxGeometry>
                </mxCell>
                <mxCell id="37" style="edgeStyle=none;html=1;entryX=1;entryY=0.5;entryDx=0;entryDy=0;strokeWidth=2;strokeColor=#000000;" parent="1" source="35" target="33" edge="1">
                    <mxGeometry relative="1" as="geometry">
                        <Array as="points">
                            <mxPoint x="740" y="540"/>
                        </Array>
                    </mxGeometry>
                </mxCell>
                <mxCell id="41" style="edgeStyle=none;html=1;strokeWidth=2;strokeColor=#000000;" parent="1" source="35" target="40" edge="1">
                    <mxGeometry relative="1" as="geometry"/>
                </mxCell>
                <mxCell id="42" style="edgeStyle=none;html=1;entryX=0;entryY=0.5;entryDx=0;entryDy=0;strokeWidth=2;strokeColor=#000000;" parent="1" source="40" target="26" edge="1">
                    <mxGeometry relative="1" as="geometry">
                        <Array as="points">
                            <mxPoint x="80" y="460"/>
                            <mxPoint x="80" y="160"/>
                        </Array>
                    </mxGeometry>
                </mxCell>
                <mxCell id="46" style="edgeStyle=none;html=1;strokeWidth=2;strokeColor=#000000;" parent="1" source="38" target="45" edge="1">
                    <mxGeometry relative="1" as="geometry">
                        <Array as="points">
                            <mxPoint x="180" y="620"/>
                        </Array>
                    </mxGeometry>
                </mxCell>
                <mxCell id="50" value="remote DB" style="swimlane;whiteSpace=wrap;html=1;strokeWidth=2;strokeColor=#000000;fontColor=#000000;fillColor=#FFFFFF;" parent="1" vertex="1">
                    <mxGeometry x="880" y="80" width="360" height="1160" as="geometry"/>
                </mxCell>
                <mxCell id="63" style="edgeStyle=none;html=1;strokeWidth=2;strokeColor=#000000;" parent="50" source="61" target="62" edge="1">
                    <mxGeometry relative="1" as="geometry"/>
                </mxCell>
                <mxCell id="61" value="check if recipe is already in remote DB" style="rounded=1;whiteSpace=wrap;html=1;strokeWidth=2;strokeColor=#000000;fillColor=#FFFFFF;fontColor=#000000;" parent="50" vertex="1">
                    <mxGeometry x="120" y="590" width="120" height="60" as="geometry"/>
                </mxCell>
                <mxCell id="68" style="edgeStyle=none;html=1;entryX=0.5;entryY=0;entryDx=0;entryDy=0;strokeWidth=2;strokeColor=#000000;" parent="50" source="62" target="67" edge="1">
                    <mxGeometry relative="1" as="geometry">
                        <Array as="points">
                            <mxPoint x="260" y="780"/>
                        </Array>
                    </mxGeometry>
                </mxCell>
                <mxCell id="70" style="edgeStyle=none;html=1;exitX=0;exitY=0.5;exitDx=0;exitDy=0;entryX=0.5;entryY=0;entryDx=0;entryDy=0;strokeWidth=2;strokeColor=#000000;" parent="50" source="62" target="69" edge="1">
                    <mxGeometry relative="1" as="geometry">
                        <Array as="points">
                            <mxPoint x="100" y="780"/>
                        </Array>
                    </mxGeometry>
                </mxCell>
                <mxCell id="62" value="" style="rhombus;whiteSpace=wrap;html=1;strokeWidth=2;strokeColor=#000000;fillColor=#FFFFFF;fontColor=#000000;" parent="50" vertex="1">
                    <mxGeometry x="150" y="750" width="60" height="60" as="geometry"/>
                </mxCell>
                <mxCell id="64" value="recipe already in remote DB" style="text;html=1;strokeColor=none;fillColor=none;align=center;verticalAlign=middle;whiteSpace=wrap;rounded=0;strokeWidth=2;fontColor=#000000;" parent="50" vertex="1">
                    <mxGeometry x="60" y="710" width="90" height="60" as="geometry"/>
                </mxCell>
                <mxCell id="67" value="create new entry in DB for new recipe" style="rounded=1;whiteSpace=wrap;html=1;strokeWidth=2;strokeColor=#000000;fillColor=#FFFFFF;fontColor=#000000;" parent="50" vertex="1">
                    <mxGeometry x="200" y="830" width="120" height="60" as="geometry"/>
                </mxCell>
                <mxCell id="65" value="recipe not in DB" style="text;html=1;strokeColor=none;fillColor=none;align=center;verticalAlign=middle;whiteSpace=wrap;rounded=0;strokeWidth=2;fontColor=#000000;" parent="50" vertex="1">
                    <mxGeometry x="210" y="710" width="90" height="60" as="geometry"/>
                </mxCell>
                <mxCell id="69" value="update recipe data" style="rounded=1;whiteSpace=wrap;html=1;strokeWidth=2;strokeColor=#000000;fillColor=#FFFFFF;fontColor=#000000;" parent="50" vertex="1">
                    <mxGeometry x="40" y="830" width="120" height="60" as="geometry"/>
                </mxCell>
                <mxCell id="77" value="" style="rounded=1;whiteSpace=wrap;html=1;strokeWidth=2;strokeColor=#000000;fillColor=#FFFFFF;fontColor=#000000;" parent="50" vertex="1">
                    <mxGeometry x="100" y="940" width="160" height="10" as="geometry"/>
                </mxCell>
                <mxCell id="72" style="edgeStyle=none;html=1;strokeWidth=2;entryX=0;entryY=0;entryDx=0;entryDy=0;strokeColor=#000000;" parent="50" source="69" target="77" edge="1">
                    <mxGeometry relative="1" as="geometry">
                        <mxPoint x="100" y="939.9999999999998" as="targetPoint"/>
                    </mxGeometry>
                </mxCell>
                <mxCell id="73" style="edgeStyle=none;html=1;strokeWidth=2;entryX=1;entryY=0;entryDx=0;entryDy=0;strokeColor=#000000;" parent="50" source="67" target="77" edge="1">
                    <mxGeometry relative="1" as="geometry">
                        <mxPoint x="260" y="939.9999999999998" as="targetPoint"/>
                    </mxGeometry>
                </mxCell>
                <mxCell id="57" style="edgeStyle=none;html=1;strokeWidth=2;strokeColor=#000000;" parent="1" source="45" target="56" edge="1">
                    <mxGeometry relative="1" as="geometry"/>
                </mxCell>
                <mxCell id="60" style="edgeStyle=none;html=1;strokeWidth=2;entryX=0;entryY=0.5;entryDx=0;entryDy=0;strokeColor=#000000;" parent="1" source="56" target="61" edge="1">
                    <mxGeometry relative="1" as="geometry">
                        <mxPoint x="920" y="740" as="targetPoint"/>
                    </mxGeometry>
                </mxCell>
                <mxCell id="78" style="edgeStyle=none;html=1;entryX=1;entryY=0.5;entryDx=0;entryDy=0;strokeWidth=2;strokeColor=#000000;" parent="1" source="77" target="74" edge="1">
                    <mxGeometry relative="1" as="geometry">
                        <Array as="points">
                            <mxPoint x="1060" y="1060"/>
                        </Array>
                    </mxGeometry>
                </mxCell>
                <mxCell id="82" value="&lt;font style=&quot;font-size: 24px;&quot;&gt;ShowRecipePage&lt;/font&gt;" style="rounded=0;whiteSpace=wrap;html=1;strokeWidth=2;fillColor=#FFFFFF;strokeColor=#000000;fontColor=#000000;" parent="1" vertex="1">
                    <mxGeometry x="40" y="40" width="1200" height="40" as="geometry"/>
                </mxCell>
            </root>
        </mxGraphModel>
    </diagram>
</mxfile>